<?xml version="1.0" encoding="UTF-8"?>
<svg version="1.1" viewBox="0 0 2000 2000" xmlns="http://www.w3.org/2000/svg">
 <circle cx="988.62" cy="1015.6" r="785.16" fill="#d5f6ff"/>
 <g stroke-width="18.744">
  <path d="m1412.4 529.37c28.919-214.1-80.8-504.53-385.71-510.84-395.64-8.1851-469.2 299.13-449.15 528.57 24.424 279.42 784.03 358.49 834.86-17.718z" fill="#502d16"/>
  <path d="m52.359 1890c44.209-131.62 63.795-375.93 215.99-457.51l705.95-162.84 737.31 151.1c129.74 50.216 191.06 322.37 253.09 476.57-40.4 31.272-75.222 77.585-123.28 88.245h-1673c-54.336-21.727-81.847-60.807-116.06-95.564z" fill="#025"/>
  <path d="m766.49 1101.1c3.7546 98.468-17.889 155.22-60.672 238.68 166.6 330.13 598.42 159.95 587.15-9.3067l-47.783-281.5-478.7 52.129z" fill="#fca"/>
  <path d="m1375.6 572.25c-9.2064 155.64-13.25 345.41-45.581 501.05 0 0-147.01 144.08-229.08 183.35s-105.03 33.946-182.36-1.228c-77.316-35.178-256.43-172.29-256.43-172.29-76.973-336.5-103.31-689.19 239.33-877.04l101.45 129.9c37.548 48.063 202.36 122.79 264.62 58.701 49.137-50.58 79.139 134.9 108.04 177.56z" fill="#ffd7b6"/>
 </g>
</svg>
