<?xml version="1.0" encoding="UTF-8" standalone="no"?>
<!DOCTYPE svg PUBLIC "-//W3C//DTD SVG 1.1//EN" "http://www.w3.org/Graphics/SVG/1.1/DTD/svg11.dtd">
<!-- Generated by Microsoft Visio, SVG Export Kubernetes_networking.svg Page-1 -->
<svg xmlns="http://www.w3.org/2000/svg" xmlns:xlink="http://www.w3.org/1999/xlink" xmlns:ev="http://www.w3.org/2001/xml-events"
		width="8.26772in" height="22.8858in" viewBox="0 0 595.276 1647.78" xml:space="preserve" color-interpolation-filters="sRGB"
		class="st8">
	<style type="text/css">
	<![CDATA[
		.st1 {fill:#ffffff;stroke:#000000;stroke-linecap:round;stroke-linejoin:round;stroke-width:0.75}
		.st2 {fill:#000000;font-family:Calibri;font-size:1.00001em;font-stretch:semi-expanded}
		.st3 {fill:#ffffff;stroke:#000000;stroke-linecap:round;stroke-linejoin:round;stroke-width:0.24}
		.st4 {fill:#000000;font-family:Calibri;font-size:0.833336em}
		.st5 {fill:#000000}
		.st6 {fill:#4d1e1a;font-family:Calibri;font-size:0.833336em}
		.st7 {stroke:#000000;stroke-linecap:round;stroke-linejoin:round;stroke-width:0.75}
		.st8 {fill:none;fill-rule:evenodd;font-size:12px;overflow:visible;stroke-linecap:square;stroke-miterlimit:3}
	]]>
	</style>

	<defs id="Patterns_And_Gradients">
		<linearGradient id="grad0-11" x1="0" y1="0" x2="1" y2="0" gradientTransform="rotate(90 0.5 0.5)">
			<stop offset="0.01" stop-color="#ffffff" stop-opacity="1"/>
			<stop offset="0.5" stop-color="#fefefe" stop-opacity="1"/>
			<stop offset="1" stop-color="#ffffff" stop-opacity="1"/>
		</linearGradient>
		<linearGradient id="grad0-15" x1="0" y1="0" x2="1" y2="0" gradientTransform="rotate(270 0.5 0.5)">
			<stop offset="0" stop-color="#fefefe" stop-opacity="1"/>
			<stop offset="1" stop-color="#ffffff" stop-opacity="1"/>
		</linearGradient>
	</defs>
	<g>
		<title>Page-1</title>
		<g id="group1000-1" transform="translate(98.0918,-1301.95)">
			<title>Plain.1000</title>
			<g id="group1001-2">
				<title>Sheet.1001</title>
				<g id="shape1002-3" transform="translate(2.83465,2.83465)">
					<title>Sheet.1002</title>
				</g>
				<g id="shape1001-5">
					<path d="M0 1647.78 L201.82 1647.78 L403.64 1647.78 L403.64 1358.65 L201.82 1358.65 L0 1358.65 L0 1647.78 Z"
							class="st1"/>
				</g>
			</g>
			<g id="group1003-7" transform="translate(0,-263.622)">
				<title>Sheet.1003</title>
				<desc>Finland</desc>
				<g id="shape1004-8">
					<title>Sheet.1004</title>
				</g>
				<g id="shape1003-12">
					<text x="6" y="1638.62" class="st2">Finland</text>				</g>
			</g>
		</g>
		<g id="group1028-17" transform="translate(95.8175,-975.969)">
			<title>Plain.1028</title>
			<g id="group1029-18">
				<title>Sheet.1029</title>
				<g id="shape1030-19" transform="translate(2.83465,2.83465)">
					<title>Sheet.1030</title>
				</g>
				<g id="shape1029-21">
					<path d="M0 1647.78 L201.82 1647.78 L403.64 1647.78 L403.64 1358.65 L201.82 1358.65 L0 1358.65 L0 1647.78 Z"
							class="st1"/>
				</g>
			</g>
			<g id="group1031-23" transform="translate(0,-263.622)">
				<title>Sheet.1031</title>
				<desc>Sweden</desc>
				<g id="shape1032-24">
					<title>Sheet.1032</title>
				</g>
				<g id="shape1031-27">
					<text x="6" y="1638.62" class="st2">Sweden</text>				</g>
			</g>
		</g>
		<g id="group1047-31" transform="translate(95.8175,-649.984)">
			<title>Plain.1047</title>
			<g id="group1048-32">
				<title>Sheet.1048</title>
				<g id="shape1049-33" transform="translate(2.83465,2.83465)">
					<title>Sheet.1049</title>
				</g>
				<g id="shape1048-35">
					<path d="M0 1647.78 L201.82 1647.78 L403.64 1647.78 L403.64 1358.65 L201.82 1358.65 L0 1358.65 L0 1647.78 Z"
							class="st1"/>
				</g>
			</g>
			<g id="group1050-37" transform="translate(0,-263.622)">
				<title>Sheet.1050</title>
				<desc>Norway</desc>
				<g id="shape1051-38">
					<title>Sheet.1051</title>
				</g>
				<g id="shape1050-41">
					<text x="6" y="1638.62" class="st2">Norway</text>				</g>
			</g>
		</g>
		<g id="group1066-45" transform="translate(95.8175,-318.331)">
			<title>Plain.1066</title>
			<g id="group1067-46">
				<title>Sheet.1067</title>
				<g id="shape1068-47" transform="translate(2.83465,2.83465)">
					<title>Sheet.1068</title>
				</g>
				<g id="shape1067-49">
					<path d="M0 1647.78 L201.82 1647.78 L403.64 1647.78 L403.64 1358.65 L201.82 1358.65 L0 1358.65 L0 1647.78 Z"
							class="st1"/>
				</g>
			</g>
			<g id="group1069-51" transform="translate(0,-263.622)">
				<title>Sheet.1069</title>
				<desc>Central</desc>
				<g id="shape1070-52">
					<title>Sheet.1070</title>
				</g>
				<g id="shape1069-55">
					<text x="6" y="1638.62" class="st2">Central</text>				</g>
			</g>
		</g>
		<g id="shape1005-59" transform="translate(121.044,-1411.44)">
			<title>Rectangle.1005</title>
			<desc>Ingress</desc>
			<rect x="0" y="1594.63" width="70.8661" height="53.1496" class="st3"/>
			<text x="21.05" y="1624.2" class="st4">Ingress</text>		</g>
		<g id="group1006-62" transform="translate(0,-1085.46)">
			<title>PC.1006</title>
			<desc>Web browser</desc>
			<g id="shape1007-63" transform="translate(0,-4.72617)">
				<title>Sheet.1007</title>
				<path d="M48.01 1630.38 L48.01 1636.36 L51.62 1636.36 L55.04 1640.64 L70.87 1640.64 L70.87 1586.37 L48.01 1586.37
							 L48.01 1594.15 L57.81 1594.15 L57.81 1630.38 L48.01 1630.38 ZM57.81 1594.15 L3.53 1594.15 L3.53 1630.38
							 L57.81 1630.38 L57.81 1594.15 ZM60.73 1647.78 L51.62 1636.36 L9.11 1636.36 L0 1647.78 L60.73 1647.78
							 ZM35.14 1630.38 L25.59 1630.38 L25.59 1636.36 L35.14 1636.36 L35.14 1630.38 Z" class="st1"/>
			</g>
			<g id="shape1008-65" transform="translate(7.05282,-25.393)">
				<title>Sheet.1008</title>
				<path d="M47.32 1618.41 L0 1618.41 L0 1647.78 L47.32 1647.78 L47.32 1618.41 Z" class="st1"/>
			</g>
			<g id="shape1009-67" transform="translate(8.26528,-7.08364)">
				<title>Sheet.1009</title>
				<path d="M53.45 1594.8 L58.34 1594.8 L58.34 1592.9 L53.45 1592.9 L53.45 1594.8 ZM53.45 1598.2 L58.34 1598.2 L58.34
							 1596.29 L53.45 1596.29 L53.45 1598.2 ZM41.47 1643.35 L38.77 1643.35 L40.28 1645.03 L43.19 1645.03 L41.47
							 1643.35 ZM38.42 1640.37 L36.1 1640.37 L37.72 1642.18 L40.27 1642.18 L38.42 1640.37 ZM37.32 1643.35 L34.62
							 1643.35 L35.81 1645.03 L38.72 1645.03 L37.32 1643.35 ZM34.84 1640.37 L32.52 1640.37 L33.79 1642.18 L36.35
							 1642.18 L34.84 1640.37 ZM33.17 1643.35 L30.47 1643.35 L31.33 1645.03 L34.24 1645.03 L33.17 1643.35 ZM31.27
							 1640.37 L28.95 1640.37 L29.88 1642.21 L32.44 1642.21 L31.27 1640.37 ZM29.02 1643.35 L26.32 1643.35 L26.86
							 1645.03 L29.77 1645.03 L29.02 1643.35 ZM27.75 1640.5 L25.4 1640.5 L25.95 1642.21 L28.51 1642.21 L27.75
							 1640.5 ZM24.87 1643.35 L22.17 1643.35 L22.38 1645.03 L25.29 1645.03 L24.87 1643.35 ZM24.18 1640.64 L21.82
							 1640.64 L22.04 1642.32 L24.61 1642.32 L24.18 1640.64 ZM20.55 1640.64 L18.19 1640.64 L18.08 1642.32 L20.65
							 1642.32 L20.55 1640.64 ZM20.71 1643.35 L18.01 1643.35 L17.9 1645.03 L20.81 1645.03 L20.71 1643.35 ZM16.93
							 1640.64 L14.57 1640.64 L14.13 1642.32 L16.7 1642.32 L16.93 1640.64 ZM16.56 1643.35 L13.86 1643.35 L13.43
							 1645.03 L16.34 1645.03 L16.56 1643.35 ZM31.37 1646.1 L12.32 1646.1 L11.83 1647.78 L32.19 1647.78 L31.37
							 1646.1 ZM13.3 1640.64 L10.94 1640.64 L10.18 1642.32 L12.75 1642.32 L13.3 1640.64 ZM12.41 1643.35 L9.71
							 1643.35 L8.95 1645.03 L11.86 1645.03 L12.41 1643.35 ZM9.67 1640.64 L7.31 1640.64 L6.22 1642.32 L8.79
							 1642.32 L9.67 1640.64 ZM8.26 1643.35 L5.56 1643.35 L4.48 1645.03 L7.39 1645.03 L8.26 1643.35 ZM6.04
							 1640.64 L3.68 1640.64 L2.27 1642.32 L4.84 1642.32 L6.04 1640.64 ZM4.11 1643.35 L1.41 1643.35 L0 1645.03
							 L2.91 1645.03 L4.11 1643.35 Z" class="st5"/>
			</g>
			<g id="shape1006-70">
				<text x="7.97" y="1660.78" class="st6">Web browser</text>			</g>
		</g>
		<g id="shape1010-72" transform="translate(213.17,-1411.44)">
			<title>Rectangle.1010</title>
			<desc>gateway</desc>
			<rect x="0" y="1594.63" width="70.8661" height="53.1496" class="st3"/>
			<text x="18.29" y="1624.2" class="st4">gateway</text>		</g>
		<g id="shape1011-75" transform="translate(305.296,-1318.96)">
			<title>Rectangle.1011</title>
			<desc>frontend</desc>
			<rect x="0" y="1594.63" width="70.8661" height="53.1496" class="st3"/>
			<text x="17.48" y="1624.2" class="st4">frontend</text>		</g>
		<g id="shape1012-78" transform="translate(305.296,-1411.44)">
			<title>Rectangle.1012</title>
			<desc>mainbackend</desc>
			<rect x="0" y="1594.63" width="70.8661" height="53.1496" class="st3"/>
			<text x="8.12" y="1624.2" class="st4">mainbackend</text>		</g>
		<g id="shape1013-81" transform="translate(305.296,-1503.92)">
			<title>Rectangle.1013</title>
			<desc>syncbackend</desc>
			<rect x="0" y="1594.63" width="70.8661" height="53.1496" class="st3"/>
			<text x="9.32" y="1624.2" class="st4">syncbackend</text>		</g>
		<g id="shape1014-84" transform="translate(404.508,-1457.68)">
			<title>Rectangle.1014</title>
			<desc>mediator</desc>
			<rect x="0" y="1594.63" width="70.8661" height="53.1496" class="st3"/>
			<text x="16.73" y="1624.2" class="st4">mediator</text>		</g>
		<g id="shape1015-87" transform="translate(404.508,-1362.19)">
			<title>Rectangle.1015</title>
			<desc>database</desc>
			<rect x="0" y="1594.63" width="70.8661" height="53.1496" class="st3"/>
			<text x="16.88" y="1624.2" class="st4">database</text>		</g>
		<g id="shape1016-90" transform="translate(191.91,-1430.93)">
			<title>Dynamic connector.1016</title>
			<path d="M0 1640.69 L21.26 1640.69" class="st7"/>
		</g>
		<g id="shape1017-93" transform="translate(284.036,-1430.93)">
			<title>Dynamic connector.1017</title>
			<path d="M0 1640.69 L21.26 1640.69" class="st7"/>
		</g>
		<g id="shape1018-96" transform="translate(248.603,-1411.44)">
			<title>Dynamic connector.1018</title>
			<path d="M0 1647.78 L0 1713.69 L56.69 1713.69" class="st7"/>
		</g>
		<g id="shape1020-99" transform="translate(35.4331,-1143.81)">
			<title>Dynamic connector.1020</title>
			<path d="M0 1647.78 L0 1353.57 L85.61 1353.57" class="st7"/>
		</g>
		<g id="shape1023-102" transform="translate(432.855,-1415.34)">
			<title>Dynamic connector.1023</title>
			<path d="M7.09 1647.78 L7.09 1605.44" class="st7"/>
		</g>
		<g id="shape1025-105" transform="translate(248.603,-1464.59)">
			<title>Dynamic connector.1025</title>
			<path d="M0 1647.78 L0 1581.87 L56.69 1581.87" class="st7"/>
		</g>
		<g id="shape1026-108" transform="translate(340.729,-1503.92)">
			<title>Dynamic connector.1026</title>
			<path d="M0 1647.78 L0 1667.44 L63.78 1667.44" class="st7"/>
		</g>
		<g id="shape1027-111" transform="translate(340.729,-1464.59)">
			<title>Dynamic connector.1027</title>
			<path d="M0 1647.78 L0 1628.11 L63.78 1628.11" class="st7"/>
		</g>
		<g id="shape1033-114" transform="translate(118.769,-1085.46)">
			<title>Rectangle.1033</title>
			<desc>Ingress</desc>
			<rect x="0" y="1594.63" width="70.8661" height="53.1496" class="st3"/>
			<text x="21.05" y="1624.2" class="st4">Ingress</text>		</g>
		<g id="shape1034-117" transform="translate(210.895,-1085.46)">
			<title>Rectangle.1034</title>
			<desc>gateway</desc>
			<rect x="0" y="1594.63" width="70.8661" height="53.1496" class="st3"/>
			<text x="18.29" y="1624.2" class="st4">gateway</text>		</g>
		<g id="shape1035-120" transform="translate(303.021,-992.976)">
			<title>Rectangle.1035</title>
			<desc>frontend</desc>
			<rect x="0" y="1594.63" width="70.8661" height="53.1496" class="st3"/>
			<text x="17.48" y="1624.2" class="st4">frontend</text>		</g>
		<g id="shape1036-123" transform="translate(303.021,-1085.46)">
			<title>Rectangle.1036</title>
			<desc>mainbackend</desc>
			<rect x="0" y="1594.63" width="70.8661" height="53.1496" class="st3"/>
			<text x="8.12" y="1624.2" class="st4">mainbackend</text>		</g>
		<g id="shape1037-126" transform="translate(303.021,-1177.94)">
			<title>Rectangle.1037</title>
			<desc>syncbackend</desc>
			<rect x="0" y="1594.63" width="70.8661" height="53.1496" class="st3"/>
			<text x="9.32" y="1624.2" class="st4">syncbackend</text>		</g>
		<g id="shape1038-129" transform="translate(402.234,-1131.7)">
			<title>Rectangle.1038</title>
			<desc>mediator</desc>
			<rect x="0" y="1594.63" width="70.8661" height="53.1496" class="st3"/>
			<text x="16.73" y="1624.2" class="st4">mediator</text>		</g>
		<g id="shape1039-132" transform="translate(402.234,-1036.2)">
			<title>Rectangle.1039</title>
			<desc>database</desc>
			<rect x="0" y="1594.63" width="70.8661" height="53.1496" class="st3"/>
			<text x="16.88" y="1624.2" class="st4">database</text>		</g>
		<g id="shape1040-135" transform="translate(189.636,-1104.94)">
			<title>Dynamic connector.1040</title>
			<path d="M0 1640.69 L21.26 1640.69" class="st7"/>
		</g>
		<g id="shape1041-138" transform="translate(281.762,-1104.94)">
			<title>Dynamic connector.1041</title>
			<path d="M0 1640.69 L21.26 1640.69" class="st7"/>
		</g>
		<g id="shape1042-141" transform="translate(246.329,-1085.46)">
			<title>Dynamic connector.1042</title>
			<path d="M0 1647.78 L0 1713.69 L56.69 1713.69" class="st7"/>
		</g>
		<g id="shape1043-144" transform="translate(430.581,-1089.35)">
			<title>Dynamic connector.1043</title>
			<path d="M7.09 1647.78 L7.09 1605.44" class="st7"/>
		</g>
		<g id="shape1044-147" transform="translate(246.329,-1138.61)">
			<title>Dynamic connector.1044</title>
			<path d="M0 1647.78 L0 1581.87 L56.69 1581.87" class="st7"/>
		</g>
		<g id="shape1045-150" transform="translate(338.455,-1177.94)">
			<title>Dynamic connector.1045</title>
			<path d="M0 1647.78 L0 1667.44 L63.78 1667.44" class="st7"/>
		</g>
		<g id="shape1046-153" transform="translate(338.455,-1138.61)">
			<title>Dynamic connector.1046</title>
			<path d="M0 1647.78 L0 1628.11 L63.78 1628.11" class="st7"/>
		</g>
		<g id="shape1052-156" transform="translate(118.769,-759.472)">
			<title>Rectangle.1052</title>
			<desc>Ingress</desc>
			<rect x="0" y="1594.63" width="70.8661" height="53.1496" class="st3"/>
			<text x="21.05" y="1624.2" class="st4">Ingress</text>		</g>
		<g id="shape1053-159" transform="translate(210.895,-759.472)">
			<title>Rectangle.1053</title>
			<desc>gateway</desc>
			<rect x="0" y="1594.63" width="70.8661" height="53.1496" class="st3"/>
			<text x="18.29" y="1624.2" class="st4">gateway</text>		</g>
		<g id="shape1054-162" transform="translate(303.021,-666.992)">
			<title>Rectangle.1054</title>
			<desc>frontend</desc>
			<rect x="0" y="1594.63" width="70.8661" height="53.1496" class="st3"/>
			<text x="17.48" y="1624.2" class="st4">frontend</text>		</g>
		<g id="shape1055-165" transform="translate(303.021,-759.472)">
			<title>Rectangle.1055</title>
			<desc>mainbackend</desc>
			<rect x="0" y="1594.63" width="70.8661" height="53.1496" class="st3"/>
			<text x="8.12" y="1624.2" class="st4">mainbackend</text>		</g>
		<g id="shape1056-168" transform="translate(303.021,-851.953)">
			<title>Rectangle.1056</title>
			<desc>syncbackend</desc>
			<rect x="0" y="1594.63" width="70.8661" height="53.1496" class="st3"/>
			<text x="9.32" y="1624.2" class="st4">syncbackend</text>		</g>
		<g id="shape1057-171" transform="translate(402.234,-805.713)">
			<title>Rectangle.1057</title>
			<desc>mediator</desc>
			<rect x="0" y="1594.63" width="70.8661" height="53.1496" class="st3"/>
			<text x="16.73" y="1624.2" class="st4">mediator</text>		</g>
		<g id="shape1058-174" transform="translate(402.234,-710.22)">
			<title>Rectangle.1058</title>
			<desc>database</desc>
			<rect x="0" y="1594.63" width="70.8661" height="53.1496" class="st3"/>
			<text x="16.88" y="1624.2" class="st4">database</text>		</g>
		<g id="shape1059-177" transform="translate(189.636,-778.961)">
			<title>Dynamic connector.1059</title>
			<path d="M0 1640.69 L21.26 1640.69" class="st7"/>
		</g>
		<g id="shape1060-180" transform="translate(281.762,-778.961)">
			<title>Dynamic connector.1060</title>
			<path d="M0 1640.69 L21.26 1640.69" class="st7"/>
		</g>
		<g id="shape1061-183" transform="translate(246.329,-759.472)">
			<title>Dynamic connector.1061</title>
			<path d="M0 1647.78 L0 1713.69 L56.69 1713.69" class="st7"/>
		</g>
		<g id="shape1062-186" transform="translate(430.581,-763.37)">
			<title>Dynamic connector.1062</title>
			<path d="M7.09 1647.78 L7.09 1605.44" class="st7"/>
		</g>
		<g id="shape1063-189" transform="translate(246.329,-812.622)">
			<title>Dynamic connector.1063</title>
			<path d="M0 1647.78 L0 1581.87 L56.69 1581.87" class="st7"/>
		</g>
		<g id="shape1064-192" transform="translate(338.455,-851.953)">
			<title>Dynamic connector.1064</title>
			<path d="M0 1647.78 L0 1667.44 L63.78 1667.44" class="st7"/>
		</g>
		<g id="shape1065-195" transform="translate(338.455,-812.622)">
			<title>Dynamic connector.1065</title>
			<path d="M0 1647.78 L0 1628.11 L63.78 1628.11" class="st7"/>
		</g>
		<g id="shape1071-198" transform="translate(118.769,-427.819)">
			<title>Rectangle.1071</title>
			<desc>Ingress</desc>
			<rect x="0" y="1594.63" width="70.8661" height="53.1496" class="st3"/>
			<text x="21.05" y="1624.2" class="st4">Ingress</text>		</g>
		<g id="shape1072-201" transform="translate(210.895,-427.819)">
			<title>Rectangle.1072</title>
			<desc>gateway</desc>
			<rect x="0" y="1594.63" width="70.8661" height="53.1496" class="st3"/>
			<text x="18.29" y="1624.2" class="st4">gateway</text>		</g>
		<g id="shape1073-204" transform="translate(303.021,-335.339)">
			<title>Rectangle.1073</title>
			<desc>frontend</desc>
			<rect x="0" y="1594.63" width="70.8661" height="53.1496" class="st3"/>
			<text x="17.48" y="1624.2" class="st4">frontend</text>		</g>
		<g id="shape1074-207" transform="translate(303.021,-427.819)">
			<title>Rectangle.1074</title>
			<desc>mainbackend</desc>
			<rect x="0" y="1594.63" width="70.8661" height="53.1496" class="st3"/>
			<text x="8.12" y="1624.2" class="st4">mainbackend</text>		</g>
		<g id="shape1075-210" transform="translate(303.021,-520.299)">
			<title>Rectangle.1075</title>
			<desc>syncbackend</desc>
			<rect x="0" y="1594.63" width="70.8661" height="53.1496" class="st3"/>
			<text x="9.32" y="1624.2" class="st4">syncbackend</text>		</g>
		<g id="shape1076-213" transform="translate(402.234,-474.059)">
			<title>Rectangle.1076</title>
			<desc>mediator</desc>
			<rect x="0" y="1594.63" width="70.8661" height="53.1496" class="st3"/>
			<text x="16.73" y="1624.2" class="st4">mediator</text>		</g>
		<g id="shape1077-216" transform="translate(402.234,-378.567)">
			<title>Rectangle.1077</title>
			<desc>database</desc>
			<rect x="0" y="1594.63" width="70.8661" height="53.1496" class="st3"/>
			<text x="16.88" y="1624.2" class="st4">database</text>		</g>
		<g id="shape1078-219" transform="translate(189.636,-447.307)">
			<title>Dynamic connector.1078</title>
			<path d="M0 1640.69 L21.26 1640.69" class="st7"/>
		</g>
		<g id="shape1079-222" transform="translate(281.762,-447.307)">
			<title>Dynamic connector.1079</title>
			<path d="M0 1640.69 L21.26 1640.69" class="st7"/>
		</g>
		<g id="shape1080-225" transform="translate(246.329,-427.819)">
			<title>Dynamic connector.1080</title>
			<path d="M0 1647.78 L0 1713.69 L56.69 1713.69" class="st7"/>
		</g>
		<g id="shape1081-228" transform="translate(430.581,-431.717)">
			<title>Dynamic connector.1081</title>
			<path d="M7.09 1647.78 L7.09 1605.44" class="st7"/>
		</g>
		<g id="shape1082-231" transform="translate(246.329,-480.969)">
			<title>Dynamic connector.1082</title>
			<path d="M0 1647.78 L0 1581.87 L56.69 1581.87" class="st7"/>
		</g>
		<g id="shape1083-234" transform="translate(338.455,-520.299)">
			<title>Dynamic connector.1083</title>
			<path d="M0 1647.78 L0 1667.44 L63.78 1667.44" class="st7"/>
		</g>
		<g id="shape1084-237" transform="translate(338.455,-480.969)">
			<title>Dynamic connector.1084</title>
			<path d="M0 1647.78 L0 1628.11 L63.78 1628.11" class="st7"/>
		</g>
		<g id="shape1085-240" transform="translate(70.8661,-1104.94)">
			<title>Dynamic connector.1085</title>
			<path d="M0 1640.69 L47.9 1640.69" class="st7"/>
		</g>
		<g id="shape1086-243" transform="translate(35.4331,-1090.18)">
			<title>Dynamic connector.1086</title>
			<path d="M0 1647.78 L0 1951.92 L83.34 1951.92" class="st7"/>
		</g>
		<g id="shape1087-246" transform="translate(481.324,-1388.76)">
			<title>Dynamic connector.1087</title>
			<path d="M-5.95 1647.78 L85.61 1647.78 L85.61 2631.4 L-8.22 2631.4" class="st7"/>
		</g>
		<g id="shape1088-249" transform="translate(466.014,-1062.78)">
			<title>Dynamic connector.1088</title>
			<path d="M7.09 1647.78 L86.74 1647.78 L86.74 2305.42 L7.09 2305.42" class="st7"/>
		</g>
		<g id="shape1089-252" transform="translate(466.014,-736.795)">
			<title>Dynamic connector.1089</title>
			<path d="M7.09 1647.78 L72.57 1647.78 L72.57 1979.43 L7.09 1979.43" class="st7"/>
		</g>
		<g id="shape1090-255" transform="translate(475.374,-1484.26)">
			<title>Dynamic connector.1090</title>
			<path d="M0 1647.78 L91.55 1647.78 L91.55 1743.27" class="st7"/>
		</g>
		<g id="shape1091-258" transform="translate(473.1,-1158.27)">
			<title>Dynamic connector.1091</title>
			<path d="M0 1647.78 L79.66 1647.78 L79.66 1743.27" class="st7"/>
		</g>
		<g id="shape1092-261" transform="translate(473.1,-832.287)">
			<title>Dynamic connector.1092</title>
			<path d="M0 1647.78 L65.48 1647.78 L65.48 1743.27" class="st7"/>
		</g>
	</g>
</svg>
